<svg xmlns="http://www.w3.org/2000/svg" viewBox="0 0 450.72 59.85"><defs><style>.cls-1{fill:#004dff;}</style></defs><g id="Layer_2" data-name="Layer 2"><g id="Layer_1-2" data-name="Layer 1"><path class="cls-1" d="M68.41,22.46a25.64,25.64,0,0,0-12,2.76l-.76.43v6.69l.18-.15s4.24-3.52,12.25-3.91c3.79-.19,6.55.51,8.19,2.07a5.81,5.81,0,0,1,1.7,4.4v1c-8.23-.29-17.24,0-21.86,4.43A10.27,10.27,0,0,0,53,48c0,7.36,6.2,11.75,16.57,11.75A41,41,0,0,0,82.81,57.6l1-.36V34.54C83.8,26.52,78.62,22.46,68.41,22.46ZM58.9,48a4.8,4.8,0,0,1,1.51-3.7c2.15-2,6.53-3,13.39-3,1.27,0,2.62,0,4.12.1V53.08a34.72,34.72,0,0,1-8.35,1C64.7,54.11,58.9,53,58.9,48Z"/><path class="cls-1" d="M5.88,51.86V0H0V52a7,7,0,0,0,7,7H36.51V53.13H7.15A1.27,1.27,0,0,1,5.88,51.86Z"/><path class="cls-1" d="M106.8,22.46a21.94,21.94,0,0,0-11.35,2.87v-1H89.7V59h5.89l0-25.83c0-1.48,4.18-4.84,11.08-4.84,8.35,0,10.1,4.37,10.1,8l0,22.52V59h5.9V36C122.67,27.51,116.74,22.46,106.8,22.46Z"/><rect class="cls-1" x="41.23" y="23.98" width="5.88" height="35.02"/><rect class="cls-1" x="41.23" y="11.94" width="5.88" height="8.42"/><path class="cls-1" d="M201.7,22.46a25.69,25.69,0,0,0-12,2.76l-.75.43v6.69l.17-.15s4.25-3.52,12.25-3.91c3.8-.19,6.55.51,8.2,2.07a5.81,5.81,0,0,1,1.7,4.4v1c-8.23-.29-17.24,0-21.87,4.43A10.27,10.27,0,0,0,186.3,48c0,7.36,6.19,11.75,16.57,11.75A41,41,0,0,0,216.1,57.6l1-.36V34.54C217.09,26.52,211.91,22.46,201.7,22.46ZM192.18,48a4.81,4.81,0,0,1,1.52-3.7c2.15-2,6.53-3,13.39-3,1.27,0,2.62,0,4.11.1V53.08a34.63,34.63,0,0,1-8.34,1C198,54.11,192.18,53,192.18,48Z"/><path class="cls-1" d="M139.17,51.86V0h-5.88V52a7,7,0,0,0,7,7h29.5V53.13H140.44A1.27,1.27,0,0,1,139.17,51.86Z"/><path class="cls-1" d="M240.09,22.46a21.91,21.91,0,0,0-11.35,2.87v-1H223V59h5.88l0-25.83c0-1.48,4.18-4.84,11.07-4.84,8.35,0,10.11,4.37,10.11,8l0,22.52V59H256V36C256,27.51,250,22.46,240.09,22.46Z"/><rect class="cls-1" x="174.52" y="23.98" width="5.88" height="35.02"/><rect class="cls-1" x="174.52" y="11.94" width="5.88" height="8.42"/><path class="cls-1" d="M423.55,22.46a25.69,25.69,0,0,0-12,2.76l-.75.43v6.69l.17-.15s4.25-3.52,12.25-3.91c3.8-.19,6.55.51,8.2,2.07a5.81,5.81,0,0,1,1.7,4.4v1c-8.23-.29-17.24,0-21.87,4.43a10.27,10.27,0,0,0-3.1,7.77c0,7.36,6.19,11.75,16.57,11.75A41,41,0,0,0,438,57.6l1-.36V34.54C438.94,26.52,433.76,22.46,423.55,22.46ZM414,48a4.81,4.81,0,0,1,1.52-3.7c2.15-2,6.53-3,13.39-3,1.27,0,2.62,0,4.11.1V53.08a34.63,34.63,0,0,1-8.34,1C419.84,54.11,414,53,414,48Z"/><rect class="cls-1" x="322.36" y="0.06" width="5.88" height="58.88"/><rect class="cls-1" x="444.84" y="0.06" width="5.88" height="59.12"/><path class="cls-1" d="M350,22.46c-4.76,0-15.84,1.82-15.84,18.69s11.08,18.7,15.84,18.7,15.83-1.82,15.83-18.7S354.74,22.46,350,22.46Zm9.95,18.69c0,8.57-3.35,12.92-9.95,12.92s-10-4.35-10-12.92,3.35-12.91,10-12.91S359.93,32.58,359.93,41.15Z"/><path class="cls-1" d="M384.35,22.58a25.35,25.35,0,0,0-6.75.86V.06h-5.88v57.3h.16c4.17,1.26,8.56,2.43,12.47,2.43,12.13,0,19.09-6.78,19.09-18.6S396.48,22.58,384.35,22.58Zm13.21,18.61c0,8.44-4.45,12.73-13.21,12.73a29.18,29.18,0,0,1-6.75-1V29.63a17.64,17.64,0,0,1,6.75-1.18C393.11,28.45,397.56,32.74,397.56,41.19Z"/><path class="cls-1" d="M311.4,27.69H294.24v5.87h15.08a1.25,1.25,0,0,1,1.25,1.25v16.9C307,53.15,297.76,56,289.14,51.6,284,49,280.18,43.19,278.85,36c-1.6-8.7.74-17.5,6.26-23.54A19.51,19.51,0,0,1,301.28,5.9a32,32,0,0,1,12.21,3.44l.15.08V2.91l-.07,0A34.78,34.78,0,0,0,297.71.14a25,25,0,0,0-16.95,8.37c-6.75,7.4-9.63,18.07-7.69,28.56,1.65,9,6.67,16.36,13.42,19.77a28.21,28.21,0,0,0,12.88,3,36.42,36.42,0,0,0,15.52-3.62l1.56-.82V32.84A5.11,5.11,0,0,0,311.4,27.69Z"/></g></g></svg>